<?xml version="1.0" encoding="UTF-8"?>
<svg width="163px" height="112px" viewBox="0 0 163 112" version="1.1" xmlns="http://www.w3.org/2000/svg" xmlns:xlink="http://www.w3.org/1999/xlink">
    <!-- Generator: Sketch 46.2 (44496) - http://www.bohemiancoding.com/sketch -->
    <title>Medacomtech logo vertical</title>
    <desc>Created with Sketch.</desc>
    <defs></defs>
    <g id="Symbols" stroke="none" stroke-width="1" fill="none" fill-rule="evenodd">
        <g id="Medacomtech-logo-vertical-on-dark">
            <g id="Medacomtech-logo-vertical">
                <path d="M21.4359155,1.30920032 L18.2494956,1.30920032 C17.6057744,1.30920032 17.1873557,1.63106091 17.0264254,2.2747821 L12.8744237,15.7607409 C12.5525631,16.8228809 12.3272607,17.7884627 12.0375862,18.8184166 L11.4582371,18.8184166 C11.1685626,17.7884627 10.9432602,16.8228809 10.6213996,15.8251131 L6.46939792,2.2747821 C6.27628156,1.63106091 5.92223491,1.30920032 5.27851372,1.30920032 L2.05990779,1.30920032 C1.31962843,1.30920032 0.90120966,1.72761909 0.869023601,2.50008451 L0,23.5175812 L2.83237322,23.5175812 L3.60483864,3.65878265 L4.24855983,3.65878265 L9.20521296,20.0414868 C9.39832931,20.653022 9.81674808,21.0070686 10.4926553,21.0070686 L13.035354,21.0070686 C13.6790752,21.0070686 14.097494,20.653022 14.2584243,20.0414868 L19.2150774,3.65878265 L19.8909846,3.65878265 L20.6956361,23.5175812 L23.5280093,23.5175812 L22.5946136,2.50008451 C22.5946136,1.72761909 22.1761949,1.30920032 21.4359155,1.30920032 Z M35.3472901,21.1679989 C34.0276616,21.1679989 33.4161265,20.5242777 33.4161265,19.0115329 L33.4161265,12.9283677 L43.0075722,12.9283677 L43.0075722,10.6431575 L33.4161265,10.6431575 L33.4161265,5.81524862 C33.4161265,4.33468989 34.0276616,3.69096871 35.3472901,3.69096871 L44.2628285,3.69096871 L44.3915727,1.47013062 C41.4304553,1.27701426 38.050919,1.27701426 34.8644992,1.27701426 C32.2574284,1.27701426 30.6159394,2.75757299 30.5837533,5.13934137 L30.5837533,19.6874402 C30.6159394,22.0692086 32.2574284,23.5497673 34.8644992,23.5497673 C38.050919,23.5497673 41.4304553,23.5497673 44.3915727,23.3566509 L44.2628285,21.1679989 L35.3472901,21.1679989 Z M58.8179243,1.01952579 C65.190764,1.01952579 67.4759742,3.81971294 67.4759742,12.4133908 C67.4759742,21.0070686 65.190764,23.8072558 58.8179243,23.8072558 C55.7602486,23.8072558 53.2175499,23.6785115 50.9001537,23.5175812 L50.9001537,1.30920032 C53.2175499,1.14827002 55.7602486,1.01952579 58.8179243,1.01952579 Z M58.8179243,21.3289292 C63.0664841,21.3289292 64.5148568,19.1402772 64.5148568,12.4133908 C64.5148568,5.68650438 63.0664841,3.46566629 58.8179243,3.46566629 C56.8545746,3.46566629 55.2452717,3.49785235 53.7325269,3.53003841 L53.7325269,21.2645571 C55.1808996,21.2967431 56.8867607,21.3289292 58.8179243,21.3289292 Z M88.2107934,23.5175812 L86.0221413,16.5653924 L76.8813005,16.5653924 L74.6926485,23.5175812 L71.7637171,23.5175812 L78.9090222,2.08166574 C79.0377665,1.59887485 79.4561852,1.30920032 79.9711622,1.30920032 L82.9322796,1.30920032 C83.4472566,1.30920032 83.8656754,1.59887485 83.9944196,2.08166574 L91.1397248,23.5175812 L88.2107934,23.5175812 Z M77.6537659,14.1192519 L85.2496759,14.1192519 L82.4494887,5.30027167 C82.2563724,4.7209226 82.063256,4.07720142 81.9023257,3.49785235 L81.0011161,3.49785235 C80.8401858,4.07720142 80.6470694,4.7209226 80.4539531,5.30027167 L77.6537659,14.1192519 Z M104.117704,0.922967608 C97.7126778,0.922967608 95.3952816,3.94845718 95.3952816,12.4133908 C95.3952816,20.8783244 97.7126778,23.9038139 104.117704,23.9038139 C107.014449,23.9038139 108.752496,23.6785115 110.619288,23.1635346 L110.329613,21.0392547 C108.527194,21.2967431 106.853519,21.3933013 104.117704,21.3933013 C99.7725856,21.3933013 98.3885851,19.1724632 98.3885851,12.4133908 C98.3885851,5.65431832 99.7725856,3.43348023 104.117704,3.43348023 C106.692588,3.43348023 107.947845,3.53003841 109.879008,3.72315477 L110.168683,1.56668879 C108.334077,1.11608396 106.917891,0.922967608 104.117704,0.922967608 Z M124.273174,0.890781549 C130.742572,0.890781549 133.027782,3.72315477 133.027782,12.4133908 C133.027782,21.1036268 130.742572,23.936 124.273174,23.936 C117.803776,23.936 115.48638,21.1036268 115.48638,12.4133908 C115.48638,3.72315477 117.803776,0.890781549 124.273174,0.890781549 Z M124.273174,3.43348023 C119.89587,3.43348023 118.479683,5.62213226 118.479683,12.4133908 C118.479683,19.2046493 119.89587,21.3933013 124.273174,21.3933013 C128.650478,21.3933013 130.066664,19.2046493 130.066664,12.4133908 C130.066664,5.62213226 128.650478,3.43348023 124.273174,3.43348023 Z M160.907906,1.30920032 L157.721486,1.30920032 C157.077765,1.30920032 156.659346,1.63106091 156.498416,2.2747821 L152.346414,15.7607409 C152.024554,16.8228809 151.799251,17.7884627 151.509577,18.8184166 L150.930228,18.8184166 C150.640553,17.7884627 150.415251,16.8228809 150.09339,15.8251131 L145.941389,2.2747821 C145.748272,1.63106091 145.394226,1.30920032 144.750504,1.30920032 L141.531898,1.30920032 C140.791619,1.30920032 140.3732,1.72761909 140.341014,2.50008451 L139.471991,23.5175812 L142.304364,23.5175812 L143.076829,3.65878265 L143.72055,3.65878265 L148.677204,20.0414868 C148.87032,20.653022 149.288739,21.0070686 149.964646,21.0070686 L152.507345,21.0070686 C153.151066,21.0070686 153.569485,20.653022 153.730415,20.0414868 L158.687068,3.65878265 L159.362975,3.65878265 L160.167627,23.5175812 L163,23.5175812 L162.066604,2.50008451 C162.066604,1.72761909 161.648186,1.30920032 160.907906,1.30920032 Z" id="MEDACOM" fill="#FFFFFF"></path>
                <g id="Group" transform="translate(0.000000, 34.000000)">
                    <rect id="Rectangle" fill="#FCC419" x="0" y="0" width="163" height="78" rx="4"></rect>
                    <path d="M43.092437,20.6386555 L11,20.6386555 L11,29.2605042 L21.2717087,29.2605042 L21.2717087,57.3613445 L32.8207283,57.3613445 L32.8207283,29.2605042 L43.092437,29.2605042 L43.092437,20.6386555 Z M62.3518908,48.7394958 C61.0213585,48.7394958 60.1698179,47.9411765 60.1698179,46.8235294 L60.1698179,42.4061625 L73.9009104,42.4061625 L73.9009104,34.7422969 L60.1698179,34.7422969 L60.1698179,31.1764706 C60.1698179,30.0588235 61.0213585,29.2605042 62.3518908,29.2605042 L75.8168768,29.2605042 L76.3490896,21.1176471 C71.0269608,20.4257703 63.5759804,20.4257703 57.2426471,20.4257703 C52.1866246,20.4257703 48.6207983,23.8319328 48.6207983,28.7815126 L48.6207983,49.2184874 C48.6207983,54.1680672 52.1866246,57.5742297 57.2426471,57.5742297 C63.5759804,57.5742297 71.0269608,57.5742297 76.3490896,56.8823529 L75.8168768,48.7394958 L62.3518908,48.7394958 Z M98.3228291,20 C86.1351541,20 81.6645658,25.0028011 81.6645658,39 C81.6645658,52.9971989 86.1351541,58 98.3228291,58 C104.070728,58 107.476891,57.5210084 111.202381,56.2436975 L110.35084,47.8347339 C106.785014,48.2072829 103.644958,48.2605042 98.3228291,48.2605042 C94.7037815,48.2605042 93.7990196,46.4509804 93.7990196,39 C93.7990196,31.5490196 94.7037815,29.7394958 98.3228291,29.7394958 C103.378852,29.7394958 105.827031,29.7927171 109.552521,29.8459384 L110.404062,21.4369748 C106.731793,20.4257703 104.070728,20 98.3228291,20 Z M138.285364,20.6386555 L138.285364,33.837535 L129.02486,33.837535 L129.02486,20.6386555 L117.47584,20.6386555 L117.47584,57.3613445 L129.02486,57.3613445 L129.02486,41.9271709 L138.285364,41.9271709 L138.285364,57.3613445 L149.834384,57.3613445 L149.834384,20.6386555 L138.285364,20.6386555 Z" id="TECH" fill="#292929"></path>
                </g>
            </g>
        </g>
    </g>
</svg>