<?xml version="1.0" encoding="UTF-8"?>
<svg width="408px" height="78px" viewBox="0 0 408 78" version="1.1" xmlns="http://www.w3.org/2000/svg" xmlns:xlink="http://www.w3.org/1999/xlink">
    <!-- Generator: Sketch 46.2 (44496) - http://www.bohemiancoding.com/sketch -->
    <title>Medacomtech logo black</title>
    <desc>Created with Sketch.</desc>
    <defs></defs>
    <g id="Symbols" stroke="none" stroke-width="1" fill="none" fill-rule="evenodd">
        <g id="Medacomtech-logo">
            <g>
                <rect id="Rectangle" fill="#FCC419" x="245" y="0" width="163" height="78" rx="4"></rect>
                <path d="M30.994,25.26 L26.44,25.26 C25.52,25.26 24.922,25.72 24.692,26.64 L18.758,45.914 C18.298,47.432 17.976,48.812 17.562,50.284 L16.734,50.284 C16.32,48.812 15.998,47.432 15.538,46.006 L9.604,26.64 C9.328,25.72 8.822,25.26 7.902,25.26 L3.302,25.26 C2.244,25.26 1.646,25.858 1.6,26.962 L0.358,57 L4.406,57 L5.51,28.618 L6.43,28.618 L13.514,52.032 C13.79,52.906 14.388,53.412 15.354,53.412 L18.988,53.412 C19.908,53.412 20.506,52.906 20.736,52.032 L27.82,28.618 L28.786,28.618 L29.936,57 L33.984,57 L32.65,26.962 C32.65,25.858 32.052,25.26 30.994,25.26 Z M50.876,53.642 C48.99,53.642 48.116,52.722 48.116,50.56 L48.116,41.866 L61.824,41.866 L61.824,38.6 L48.116,38.6 L48.116,31.7 C48.116,29.584 48.99,28.664 50.876,28.664 L63.618,28.664 L63.802,25.49 C59.57,25.214 54.74,25.214 50.186,25.214 C46.46,25.214 44.114,27.33 44.068,30.734 L44.068,51.526 C44.114,54.93 46.46,57.046 50.186,57.046 C54.74,57.046 59.57,57.046 63.802,56.77 L63.618,53.642 L50.876,53.642 Z M84.42,24.846 C93.528,24.846 96.794,28.848 96.794,41.13 C96.794,53.412 93.528,57.414 84.42,57.414 C80.05,57.414 76.416,57.23 73.104,57 L73.104,25.26 C76.416,25.03 80.05,24.846 84.42,24.846 Z M84.42,53.872 C90.492,53.872 92.562,50.744 92.562,41.13 C92.562,31.516 90.492,28.342 84.42,28.342 C81.614,28.342 79.314,28.388 77.152,28.434 L77.152,53.78 C79.222,53.826 81.66,53.872 84.42,53.872 Z M126.428,57 L123.3,47.064 L110.236,47.064 L107.108,57 L102.922,57 L113.134,26.364 C113.318,25.674 113.916,25.26 114.652,25.26 L118.884,25.26 C119.62,25.26 120.218,25.674 120.402,26.364 L130.614,57 L126.428,57 Z M111.34,43.568 L122.196,43.568 L118.194,30.964 C117.918,30.136 117.642,29.216 117.412,28.388 L116.124,28.388 C115.894,29.216 115.618,30.136 115.342,30.964 L111.34,43.568 Z M149.162,24.708 C140.008,24.708 136.696,29.032 136.696,41.13 C136.696,53.228 140.008,57.552 149.162,57.552 C153.302,57.552 155.786,57.23 158.454,56.494 L158.04,53.458 C155.464,53.826 153.072,53.964 149.162,53.964 C142.952,53.964 140.974,50.79 140.974,41.13 C140.974,31.47 142.952,28.296 149.162,28.296 C152.842,28.296 154.636,28.434 157.396,28.71 L157.81,25.628 C155.188,24.984 153.164,24.708 149.162,24.708 Z M177.968,24.662 C187.214,24.662 190.48,28.71 190.48,41.13 C190.48,53.55 187.214,57.598 177.968,57.598 C168.722,57.598 165.41,53.55 165.41,41.13 C165.41,28.71 168.722,24.662 177.968,24.662 Z M177.968,28.296 C171.712,28.296 169.688,31.424 169.688,41.13 C169.688,50.836 171.712,53.964 177.968,53.964 C184.224,53.964 186.248,50.836 186.248,41.13 C186.248,31.424 184.224,28.296 177.968,28.296 Z M230.326,25.26 L225.772,25.26 C224.852,25.26 224.254,25.72 224.024,26.64 L218.09,45.914 C217.63,47.432 217.308,48.812 216.894,50.284 L216.066,50.284 C215.652,48.812 215.33,47.432 214.87,46.006 L208.936,26.64 C208.66,25.72 208.154,25.26 207.234,25.26 L202.634,25.26 C201.576,25.26 200.978,25.858 200.932,26.962 L199.69,57 L203.738,57 L204.842,28.618 L205.762,28.618 L212.846,52.032 C213.122,52.906 213.72,53.412 214.686,53.412 L218.32,53.412 C219.24,53.412 219.838,52.906 220.068,52.032 L227.152,28.618 L228.118,28.618 L229.268,57 L233.316,57 L231.982,26.962 C231.982,25.858 231.384,25.26 230.326,25.26 Z" id="MEDACOM" fill="#4A4A4A"></path>
                <path d="M288.092437,20.6386555 L256,20.6386555 L256,29.2605042 L266.271709,29.2605042 L266.271709,57.3613445 L277.820728,57.3613445 L277.820728,29.2605042 L288.092437,29.2605042 L288.092437,20.6386555 Z M307.351891,48.7394958 C306.021359,48.7394958 305.169818,47.9411765 305.169818,46.8235294 L305.169818,42.4061625 L318.90091,42.4061625 L318.90091,34.7422969 L305.169818,34.7422969 L305.169818,31.1764706 C305.169818,30.0588235 306.021359,29.2605042 307.351891,29.2605042 L320.816877,29.2605042 L321.34909,21.1176471 C316.026961,20.4257703 308.57598,20.4257703 302.242647,20.4257703 C297.186625,20.4257703 293.620798,23.8319328 293.620798,28.7815126 L293.620798,49.2184874 C293.620798,54.1680672 297.186625,57.5742297 302.242647,57.5742297 C308.57598,57.5742297 316.026961,57.5742297 321.34909,56.8823529 L320.816877,48.7394958 L307.351891,48.7394958 Z M343.322829,20 C331.135154,20 326.664566,25.0028011 326.664566,39 C326.664566,52.9971989 331.135154,58 343.322829,58 C349.070728,58 352.476891,57.5210084 356.202381,56.2436975 L355.35084,47.8347339 C351.785014,48.2072829 348.644958,48.2605042 343.322829,48.2605042 C339.703782,48.2605042 338.79902,46.4509804 338.79902,39 C338.79902,31.5490196 339.703782,29.7394958 343.322829,29.7394958 C348.378852,29.7394958 350.827031,29.7927171 354.552521,29.8459384 L355.404062,21.4369748 C351.731793,20.4257703 349.070728,20 343.322829,20 Z M383.285364,20.6386555 L383.285364,33.837535 L374.02486,33.837535 L374.02486,20.6386555 L362.47584,20.6386555 L362.47584,57.3613445 L374.02486,57.3613445 L374.02486,41.9271709 L383.285364,41.9271709 L383.285364,57.3613445 L394.834384,57.3613445 L394.834384,20.6386555 L383.285364,20.6386555 Z" id="TECH" fill="#292929"></path>
            </g>
        </g>
    </g>
</svg>